<svg width="602" height="201" viewBox="0 0 602 201" fill="none" xmlns="http://www.w3.org/2000/svg">
<path d="M152.608 11.3596C167.397 7.46695 181.819 17.82 180.027 34.136L164.365 176.73C162.223 196.225 138.74 207.769 124.136 196.504L115.815 190.085C127.026 188.301 137.566 178.95 138.967 166.193L139.084 165.12C140.715 164.509 142.293 163.824 143.815 163.063C151.548 159.196 157.415 153.996 161.415 147.463C165.548 140.93 167.615 133.663 167.615 125.663C167.615 117.263 165.548 110.396 161.415 105.063C157.374 99.8497 152.569 95.8476 147 93.0549L149.855 67.0627H165.815C165.207 55.0279 160.94 45.4328 153.017 38.2746L154.629 23.5989C155.137 18.9779 154.342 14.8361 152.608 11.3596ZM118.64 4.77953C131.703 -4.11816 147.027 0.169226 152.608 11.3596C149.726 12.1181 146.83 13.4148 144.038 15.3166L127.851 26.3411C123.314 25.4903 118.435 25.0627 113.214 25.0627C98.0144 25.0628 85.6809 28.7963 76.2143 36.2629C66.7477 43.5963 62.0141 53.7969 62.0141 66.8635C62.0141 68.3106 62.0713 69.7126 62.1831 71.0696L37.5483 87.8498C23.3193 97.5419 21.1737 117.081 33.31 126.443L115.815 190.085C109.894 191.028 103.786 189.86 98.7387 185.967L7.91257 115.906C-4.22377 106.545 -2.07825 87.0047 12.1508 77.3127L118.64 4.77953ZM127.851 26.3411C136.755 28.0107 144.344 31.3166 150.615 36.2629C151.45 36.9101 152.25 37.5817 153.017 38.2746L149.855 67.0627H128.815C128.548 62.5297 126.881 58.9964 123.815 56.4631C120.748 53.7964 116.814 52.4631 112.014 52.4631C107.881 52.4632 104.547 53.5969 102.014 55.8635C99.4811 57.9968 98.2144 61.1299 98.2143 65.2629C98.2143 69.7963 100.348 73.3302 104.615 75.8635C108.881 78.3968 115.548 81.1295 124.615 84.0627C133.681 87.1294 141.015 90.0635 146.615 92.8635C146.744 92.9265 146.872 92.9906 147 93.0549L139.084 165.12C132.431 167.615 124.874 168.864 116.415 168.864C106.148 168.864 96.9481 167.197 88.8149 163.864C80.6816 160.53 74.1477 155.596 69.2143 149.063C64.4145 142.529 61.8814 134.663 61.6147 125.463H98.0141C98.5475 130.663 100.348 134.663 103.415 137.463C106.481 140.13 110.481 141.463 115.415 141.463C120.481 141.463 124.481 140.329 127.415 138.063C130.348 135.663 131.815 132.396 131.815 128.263C131.815 124.796 130.614 121.93 128.214 119.663C125.948 117.397 123.081 115.529 119.615 114.063C116.281 112.596 111.481 110.929 105.214 109.063C96.1478 106.263 88.7474 103.463 83.0141 100.663C77.2809 97.8633 72.3476 93.7295 68.2143 88.2629C64.7609 83.6954 62.751 77.9641 62.1831 71.0696L127.851 26.3411Z" fill="white"/>
<path d="M215.55 151.231C210.302 151.231 205.566 150.111 201.342 147.871C197.182 145.631 193.886 142.431 191.454 138.271C189.086 134.111 187.902 129.247 187.902 123.679C187.902 118.175 189.118 113.343 191.55 109.183C193.982 104.959 197.31 101.727 201.534 99.4869C205.758 97.2469 210.494 96.1269 215.742 96.1269C220.99 96.1269 225.726 97.2469 229.95 99.4869C234.174 101.727 237.502 104.959 239.934 109.183C242.366 113.343 243.582 118.175 243.582 123.679C243.582 129.183 242.334 134.047 239.838 138.271C237.406 142.431 234.046 145.631 229.758 147.871C225.534 150.111 220.798 151.231 215.55 151.231ZM215.55 137.023C218.686 137.023 221.342 135.871 223.518 133.567C225.758 131.263 226.878 127.967 226.878 123.679C226.878 119.391 225.79 116.095 223.614 113.791C221.502 111.487 218.878 110.335 215.742 110.335C212.542 110.335 209.886 111.487 207.774 113.791C205.662 116.031 204.606 119.327 204.606 123.679C204.606 127.967 205.63 131.263 207.678 133.567C209.79 135.871 212.414 137.023 215.55 137.023ZM284.171 110.527H275.339V150.463H258.923V110.527H252.971V96.8949H258.923V95.3589C258.923 88.7669 260.811 83.7749 264.587 80.3829C268.363 76.9269 273.899 75.1989 281.195 75.1989C282.411 75.1989 283.307 75.2309 283.883 75.2949V89.2149C280.747 89.0229 278.539 89.4709 277.259 90.5589C275.979 91.6469 275.339 93.5989 275.339 96.4149V96.8949H284.171V110.527ZM326.741 136.543V150.463H318.389C312.437 150.463 307.797 149.023 304.469 146.143C301.141 143.199 299.477 138.431 299.477 131.839V110.527H292.949V96.8949H299.477V83.8389H315.893V96.8949H326.645V110.527H315.893V132.031C315.893 133.631 316.277 134.783 317.045 135.487C317.813 136.191 319.093 136.543 320.885 136.543H326.741ZM373.813 96.3189C379.957 96.3189 384.885 98.3669 388.597 102.463C392.309 106.495 394.165 112.063 394.165 119.167V150.463H377.845V121.375C377.845 117.791 376.917 115.007 375.061 113.023C373.205 111.039 370.709 110.047 367.573 110.047C364.437 110.047 361.941 111.039 360.085 113.023C358.229 115.007 357.301 117.791 357.301 121.375V150.463H340.885V79.4229H357.301V104.095C358.965 101.727 361.237 99.8389 364.117 98.4309C366.997 97.0229 370.229 96.3189 373.813 96.3189ZM407.309 123.583C407.309 118.079 408.333 113.247 410.381 109.087C412.493 104.927 415.341 101.727 418.925 99.4869C422.509 97.2469 426.509 96.1269 430.925 96.1269C434.701 96.1269 437.997 96.8949 440.813 98.4309C443.693 99.9669 445.901 101.983 447.437 104.479V96.8949H463.853V150.463H447.437V142.879C445.837 145.375 443.597 147.391 440.717 148.927C437.901 150.463 434.605 151.231 430.829 151.231C426.477 151.231 422.509 150.111 418.925 147.871C415.341 145.567 412.493 142.335 410.381 138.175C408.333 133.951 407.309 129.087 407.309 123.583ZM447.437 123.679C447.437 119.583 446.285 116.351 443.981 113.983C441.741 111.615 438.989 110.431 435.725 110.431C432.461 110.431 429.677 111.615 427.373 113.983C425.133 116.287 424.013 119.487 424.013 123.583C424.013 127.679 425.133 130.943 427.373 133.375C429.677 135.743 432.461 136.927 435.725 136.927C438.989 136.927 441.741 135.743 443.981 133.375C446.285 131.007 447.437 127.775 447.437 123.679ZM533.625 96.8949V150.463H517.209V143.167C515.545 145.535 513.273 147.455 510.393 148.927C507.577 150.335 504.441 151.039 500.985 151.039C496.889 151.039 493.273 150.143 490.137 148.351C487.001 146.495 484.569 143.839 482.841 140.383C481.113 136.927 480.249 132.863 480.249 128.191V96.8949H496.569V125.983C496.569 129.567 497.497 132.351 499.353 134.335C501.209 136.319 503.705 137.311 506.841 137.311C510.041 137.311 512.569 136.319 514.425 134.335C516.281 132.351 517.209 129.567 517.209 125.983V96.8949H533.625ZM572.208 151.231C567.536 151.231 563.376 150.431 559.728 148.831C556.08 147.231 553.2 145.055 551.088 142.303C548.976 139.487 547.792 136.351 547.536 132.895H563.76C563.952 134.751 564.816 136.255 566.352 137.407C567.888 138.559 569.776 139.135 572.016 139.135C574.064 139.135 575.632 138.751 576.72 137.983C577.872 137.151 578.448 136.095 578.448 134.815C578.448 133.279 577.648 132.159 576.048 131.455C574.448 130.687 571.856 129.855 568.272 128.959C564.432 128.063 561.232 127.135 558.672 126.175C556.112 125.151 553.904 123.583 552.048 121.471C550.192 119.295 549.264 116.383 549.264 112.735C549.264 109.663 550.096 106.879 551.76 104.383C553.488 101.823 555.984 99.8069 559.248 98.3349C562.576 96.8629 566.512 96.1269 571.056 96.1269C577.776 96.1269 583.056 97.7909 586.896 101.119C590.8 104.447 593.04 108.863 593.616 114.367H578.448C578.192 112.511 577.36 111.039 575.952 109.951C574.608 108.863 572.816 108.319 570.576 108.319C568.656 108.319 567.184 108.703 566.16 109.471C565.136 110.175 564.624 111.167 564.624 112.447C564.624 113.983 565.424 115.135 567.024 115.903C568.688 116.671 571.248 117.439 574.704 118.207C578.672 119.231 581.904 120.255 584.4 121.279C586.896 122.239 589.072 123.839 590.928 126.079C592.848 128.255 593.84 131.199 593.904 134.911C593.904 138.047 593.008 140.863 591.216 143.359C589.488 145.791 586.96 147.711 583.632 149.119C580.368 150.527 576.56 151.231 572.208 151.231Z" fill="white"/>
</svg>
